<svg id="Layer_1" height="512" viewBox="0 0 512 512" width="512" xmlns="http://www.w3.org/2000/svg"><g><g><g><path d="m264 384h-68.118c-12.73 0-24.939 5.057-33.941 14.059l-17.941 17.941 40 40 19.314-19.314c3.001-3.001 7.07-4.686 11.314-4.686h49.372c13.255 0 24-10.745 24-24 0-13.255-10.745-24-24-24z" fill="#fab991"/></g><g><path d="m379.314 372.686c-6.248-6.249-16.379-6.249-22.627 0l-59.314 59.314h-82.745c-4.243 0-8.313 1.686-11.314 4.686l-19.314 19.314 24 24 16-16h76.687c6.411 0 12.438-2.497 16.97-7.03l61.657-61.657c6.248-6.247 6.248-16.378 0-22.627z" fill="#f0915a"/></g><g><path d="m264 421.333h-5.333c-4.418 0-8-3.582-8-8v-10.667c0-4.418 3.582-8 8-8h5.333c7.364 0 13.333 5.97 13.333 13.333 0 7.365-5.969 13.334-13.333 13.334z" fill="#f0915a"/></g><g><path d="m141.657 413.657 42.343 42.343-40 40h-96l82.343-82.343c3.124-3.124 8.19-3.124 11.314 0z" fill="#d7e6f0"/></g><g><path d="m184 456 26.343 26.343c3.124 3.124 3.124 8.19 0 11.314l-2.343 2.343h-64z" fill="#a5c3dc"/></g></g><path d="m494.782 249.877c-2.476-5.979-8.311-9.877-14.782-9.877h-16c0-59.833-23.3-116.084-65.608-158.392s-98.559-65.608-158.392-65.608-116.084 23.3-158.392 65.608-65.608 98.559-65.608 158.392 23.3 116.084 65.608 158.392c3.124 3.124 7.219 4.686 11.313 4.686s8.189-1.562 11.313-4.686c6.249-6.248 6.249-16.379 0-22.627-36.262-36.265-56.234-84.48-56.234-135.765s19.972-99.5 56.235-135.764c36.265-36.265 84.48-56.236 135.765-56.236s99.5 19.971 135.765 56.236c36.263 36.264 56.235 84.479 56.235 135.764h-16c-6.471 0-12.306 3.898-14.782 9.877-2.477 5.979-1.107 12.861 3.469 17.437l32 32c3.124 3.124 7.218 4.686 11.313 4.686s8.189-1.562 11.313-4.686l32-32c4.577-4.576 5.946-11.458 3.469-17.437z" fill="#23aae6"/><g><g><path d="m304.111 112c-26.192-.017-49.444 12.557-64.054 31.99-14.61-19.433-37.862-32.007-64.054-31.99-45.449.03-81.195 38.532-79.889 83.962 2.686 93.478 99.776 152.693 128.2 168.053 4.839 2.615 10.243 3.985 15.743 3.985 5.5 0 10.904-1.37 15.743-3.985 28.424-15.36 125.514-74.575 128.2-168.053 1.306-45.43-34.44-83.932-79.889-83.962z" fill="#cd3232"/></g><g><path d="m96.094 192h176.017c17.673 0 32-14.327 32-32v-48c-26.192-.017-49.444 12.557-64.054 31.99-14.61-19.433-37.862-32.007-64.054-31.99-44.121.029-79.098 36.316-79.909 80z" fill="#ff4646"/></g></g><g><g><path d="m224 280h-48c-4.418 0-8-3.582-8-8v-24c0-17.645 14.355-32 32-32 8.822 0 16-7.177 16-16s-7.178-16-16-16h-24c-4.418 0-8-3.582-8-8s3.582-8 8-8h24c17.645 0 32 14.355 32 32s-14.355 32-32 32c-8.822 0-16 7.177-16 16v16h40c4.418 0 8 3.582 8 8s-3.582 8-8 8z" fill="#d7e6f0"/></g><g><g><path d="m304 232h-48c-4.418 0-8-3.582-8-8v-48c0-4.418 3.582-8 8-8s8 3.582 8 8v40h40c4.418 0 8 3.582 8 8s-3.582 8-8 8z" fill="#d7e6f0"/></g><g><path d="m304 280c-4.418 0-8-3.582-8-8v-96c0-4.418 3.582-8 8-8s8 3.582 8 8v96c0 4.418-3.582 8-8 8z" fill="#d7e6f0"/></g></g></g></g></svg>